<mxfile host="app.diagrams.net" modified="2024-01-16T03:43:20.209Z" agent="Mozilla/5.0 (Windows NT 10.0; Win64; x64) AppleWebKit/537.36 (KHTML, like Gecko) Chrome/120.0.0.0 Safari/537.36" etag="AKwMwJuXhzQ_QLJQhMmi" version="22.1.18" type="github">
  <diagram name="第 1 页" id="iXltd4RwVlPWmBBr145E">
    <mxGraphModel dx="2059" dy="1096" grid="1" gridSize="10" guides="1" tooltips="1" connect="1" arrows="1" fold="1" page="1" pageScale="1" pageWidth="827" pageHeight="1169" math="0" shadow="0">
      <root>
        <mxCell id="0" />
        <mxCell id="1" parent="0" />
        <mxCell id="r_4EzZ_7RXdE05h-1gBr-1" value="" style="rounded=0;whiteSpace=wrap;html=1;fillColor=#f5f5f5;fontColor=#333333;strokeColor=#666666;" vertex="1" parent="1">
          <mxGeometry x="-300" y="100" width="500" height="200" as="geometry" />
        </mxCell>
        <mxCell id="r_4EzZ_7RXdE05h-1gBr-2" value="" style="rounded=0;whiteSpace=wrap;html=1;fillColor=#f5f5f5;fontColor=#333333;strokeColor=#666666;" vertex="1" parent="1">
          <mxGeometry x="300" y="100" width="500" height="200" as="geometry" />
        </mxCell>
        <mxCell id="r_4EzZ_7RXdE05h-1gBr-3" value="" style="endArrow=none;dashed=1;html=1;dashPattern=1 3;strokeWidth=2;rounded=0;" edge="1" parent="1">
          <mxGeometry width="50" height="50" relative="1" as="geometry">
            <mxPoint x="-300" y="200" as="sourcePoint" />
            <mxPoint x="800" y="200" as="targetPoint" />
          </mxGeometry>
        </mxCell>
        <mxCell id="r_4EzZ_7RXdE05h-1gBr-6" value="数据" style="rounded=0;whiteSpace=wrap;html=1;fillColor=#dae8fc;strokeColor=#6c8ebf;" vertex="1" parent="1">
          <mxGeometry x="-100" y="120" width="100" height="60" as="geometry" />
        </mxCell>
        <mxCell id="r_4EzZ_7RXdE05h-1gBr-30" value="" style="edgeStyle=orthogonalEdgeStyle;rounded=0;orthogonalLoop=1;jettySize=auto;html=1;" edge="1" parent="1" source="r_4EzZ_7RXdE05h-1gBr-8" target="r_4EzZ_7RXdE05h-1gBr-6">
          <mxGeometry relative="1" as="geometry" />
        </mxCell>
        <mxCell id="r_4EzZ_7RXdE05h-1gBr-8" value="数据" style="rounded=0;whiteSpace=wrap;html=1;fillColor=#dae8fc;strokeColor=#6c8ebf;" vertex="1" parent="1">
          <mxGeometry x="-100" y="220" width="100" height="60" as="geometry" />
        </mxCell>
        <mxCell id="r_4EzZ_7RXdE05h-1gBr-11" value="" style="rounded=0;whiteSpace=wrap;html=1;fillColor=#f5f5f5;fontColor=#333333;strokeColor=#666666;" vertex="1" parent="1">
          <mxGeometry x="300" y="350" width="500" height="80" as="geometry" />
        </mxCell>
        <mxCell id="r_4EzZ_7RXdE05h-1gBr-13" value="" style="rounded=0;whiteSpace=wrap;html=1;fillColor=#f5f5f5;fontColor=#333333;strokeColor=#666666;" vertex="1" parent="1">
          <mxGeometry x="-300" y="350" width="500" height="80" as="geometry" />
        </mxCell>
        <mxCell id="r_4EzZ_7RXdE05h-1gBr-14" value="CRC" style="rounded=0;whiteSpace=wrap;html=1;fillColor=#dae8fc;strokeColor=#6c8ebf;" vertex="1" parent="1">
          <mxGeometry x="60" y="220" width="100" height="60" as="geometry" />
        </mxCell>
        <mxCell id="r_4EzZ_7RXdE05h-1gBr-15" value="Header" style="rounded=0;whiteSpace=wrap;html=1;fillColor=#dae8fc;strokeColor=#6c8ebf;" vertex="1" parent="1">
          <mxGeometry x="-260" y="220" width="100" height="60" as="geometry" />
        </mxCell>
        <mxCell id="r_4EzZ_7RXdE05h-1gBr-16" value="数据" style="rounded=0;whiteSpace=wrap;html=1;fillColor=#dae8fc;strokeColor=#6c8ebf;" vertex="1" parent="1">
          <mxGeometry x="-100" y="360" width="100" height="60" as="geometry" />
        </mxCell>
        <mxCell id="r_4EzZ_7RXdE05h-1gBr-17" value="CRC" style="rounded=0;whiteSpace=wrap;html=1;fillColor=#dae8fc;strokeColor=#6c8ebf;" vertex="1" parent="1">
          <mxGeometry x="60" y="360" width="100" height="60" as="geometry" />
        </mxCell>
        <mxCell id="r_4EzZ_7RXdE05h-1gBr-18" value="Header" style="rounded=0;whiteSpace=wrap;html=1;fillColor=#dae8fc;strokeColor=#6c8ebf;" vertex="1" parent="1">
          <mxGeometry x="-260" y="360" width="100" height="60" as="geometry" />
        </mxCell>
        <mxCell id="r_4EzZ_7RXdE05h-1gBr-20" value="数据" style="rounded=0;whiteSpace=wrap;html=1;fillColor=#dae8fc;strokeColor=#6c8ebf;" vertex="1" parent="1">
          <mxGeometry x="500" y="360" width="100" height="60" as="geometry" />
        </mxCell>
        <mxCell id="r_4EzZ_7RXdE05h-1gBr-21" value="CRC" style="rounded=0;whiteSpace=wrap;html=1;fillColor=#dae8fc;strokeColor=#6c8ebf;" vertex="1" parent="1">
          <mxGeometry x="660" y="360" width="100" height="60" as="geometry" />
        </mxCell>
        <mxCell id="r_4EzZ_7RXdE05h-1gBr-22" value="Header" style="rounded=0;whiteSpace=wrap;html=1;fillColor=#dae8fc;strokeColor=#6c8ebf;" vertex="1" parent="1">
          <mxGeometry x="340" y="360" width="100" height="60" as="geometry" />
        </mxCell>
        <mxCell id="r_4EzZ_7RXdE05h-1gBr-23" value="数据" style="rounded=0;whiteSpace=wrap;html=1;fillColor=#dae8fc;strokeColor=#6c8ebf;" vertex="1" parent="1">
          <mxGeometry x="500" y="120" width="100" height="60" as="geometry" />
        </mxCell>
        <mxCell id="r_4EzZ_7RXdE05h-1gBr-24" value="数据" style="rounded=0;whiteSpace=wrap;html=1;fillColor=#dae8fc;strokeColor=#6c8ebf;" vertex="1" parent="1">
          <mxGeometry x="500" y="220" width="100" height="60" as="geometry" />
        </mxCell>
        <mxCell id="r_4EzZ_7RXdE05h-1gBr-25" value="CRC" style="rounded=0;whiteSpace=wrap;html=1;fillColor=#dae8fc;strokeColor=#6c8ebf;" vertex="1" parent="1">
          <mxGeometry x="660" y="220" width="100" height="60" as="geometry" />
        </mxCell>
        <mxCell id="r_4EzZ_7RXdE05h-1gBr-26" value="Header" style="rounded=0;whiteSpace=wrap;html=1;fillColor=#dae8fc;strokeColor=#6c8ebf;" vertex="1" parent="1">
          <mxGeometry x="340" y="220" width="100" height="60" as="geometry" />
        </mxCell>
        <mxCell id="r_4EzZ_7RXdE05h-1gBr-27" value="" style="endArrow=classic;html=1;rounded=0;" edge="1" parent="1">
          <mxGeometry width="50" height="50" relative="1" as="geometry">
            <mxPoint x="-50.5" y="180" as="sourcePoint" />
            <mxPoint x="-50.5" y="220" as="targetPoint" />
          </mxGeometry>
        </mxCell>
        <mxCell id="r_4EzZ_7RXdE05h-1gBr-29" value="" style="endArrow=classic;html=1;rounded=0;" edge="1" parent="1">
          <mxGeometry width="50" height="50" relative="1" as="geometry">
            <mxPoint x="549.5" y="220" as="sourcePoint" />
            <mxPoint x="549.5" y="180" as="targetPoint" />
          </mxGeometry>
        </mxCell>
      </root>
    </mxGraphModel>
  </diagram>
</mxfile>
